<svg xmlns="http://www.w3.org/2000/svg" width="520" height="520" fill="none" viewBox="0 0 520 520"><rect width="520" height="520" fill="#020617" rx="32"/><circle cx="390" cy="110" r="136" fill="url(#paint0_radial)"/><circle cx="132" cy="412" r="146" fill="url(#paint1_radial)"/><rect width="42" height="198" x="110" y="148" fill="url(#paint2_linear)" rx="18"/><rect width="42" height="232" x="178" y="114" fill="url(#paint3_linear)" rx="18"/><rect width="42" height="170" x="246" y="176" fill="url(#paint4_linear)" rx="18"/><rect width="42" height="214" x="314" y="132" fill="url(#paint5_linear)" rx="18"/><path stroke="#fff" stroke-linecap="round" stroke-opacity=".16" stroke-width="3" d="M92 390C176 334 246 228 330 228C376 228 406 256 430 278"/><rect width="392" height="392" x="64" y="64" stroke="#fff" stroke-opacity=".08" stroke-width="2" rx="24"/><defs><radialGradient id="paint0_radial" cx="0" cy="0" r="1" gradientTransform="translate(390 110) rotate(90) scale(136)" gradientUnits="userSpaceOnUse"><stop stop-color="#6366F1"/><stop offset="1" stop-color="#6366F1" stop-opacity="0"/></radialGradient><radialGradient id="paint1_radial" cx="0" cy="0" r="1" gradientTransform="translate(132 412) rotate(90) scale(146)" gradientUnits="userSpaceOnUse"><stop stop-color="#10B981"/><stop offset="1" stop-color="#10B981" stop-opacity="0"/></radialGradient><linearGradient id="paint2_linear" x1="131" x2="131" y1="148" y2="346" gradientUnits="userSpaceOnUse"><stop stop-color="#10B981"/><stop offset="1" stop-color="#0F172A"/></linearGradient><linearGradient id="paint3_linear" x1="199" x2="199" y1="114" y2="346" gradientUnits="userSpaceOnUse"><stop stop-color="#38BDF8"/><stop offset="1" stop-color="#0F172A"/></linearGradient><linearGradient id="paint4_linear" x1="267" x2="267" y1="176" y2="346" gradientUnits="userSpaceOnUse"><stop stop-color="#EC5B13"/><stop offset="1" stop-color="#0F172A"/></linearGradient><linearGradient id="paint5_linear" x1="335" x2="335" y1="132" y2="346" gradientUnits="userSpaceOnUse"><stop stop-color="#A855F7"/><stop offset="1" stop-color="#0F172A"/></linearGradient></defs></svg>