<svg xmlns="http://www.w3.org/2000/svg" width="900" height="520" fill="none" viewBox="0 0 900 520"><rect width="900" height="520" fill="#030712" rx="32"/><circle cx="188" cy="114" r="172" fill="url(#paint0_radial)"/><circle cx="756" cy="426" r="204" fill="url(#paint1_radial)"/><path stroke="url(#paint2_linear)" stroke-linecap="round" stroke-width="8" d="M108 382C184 344 236 260 314 260C390 260 432 372 510 372C590 372 618 202 704 202C766 202 798 272 842 308"/><path stroke="#fff" stroke-linecap="round" stroke-opacity=".24" stroke-width="3" d="M106 350C180 318 240 214 310 214C396 214 422 328 514 328C596 328 620 138 706 138C768 138 798 196 840 240"/><rect width="748" height="396" x="76" y="62" stroke="#fff" stroke-opacity=".09" stroke-width="2" rx="28"/><defs><radialGradient id="paint0_radial" cx="0" cy="0" r="1" gradientTransform="translate(188 114) rotate(90) scale(172)" gradientUnits="userSpaceOnUse"><stop stop-color="#EC5B13"/><stop offset="1" stop-color="#EC5B13" stop-opacity="0"/></radialGradient><radialGradient id="paint1_radial" cx="0" cy="0" r="1" gradientTransform="translate(756 426) rotate(90) scale(204)" gradientUnits="userSpaceOnUse"><stop stop-color="#A855F7"/><stop offset="1" stop-color="#A855F7" stop-opacity="0"/></radialGradient><linearGradient id="paint2_linear" x1="108" x2="842" y1="290" y2="290" gradientUnits="userSpaceOnUse"><stop stop-color="#EC5B13" stop-opacity=".2"/><stop offset=".5" stop-color="#fff"/><stop offset="1" stop-color="#A855F7" stop-opacity=".25"/></linearGradient></defs></svg>