<svg xmlns="http://www.w3.org/2000/svg" width="520" height="900" fill="none" viewBox="0 0 520 900"><rect width="520" height="900" fill="#030712" rx="32"/><circle cx="410" cy="132" r="182" fill="url(#paint0_radial)"/><circle cx="98" cy="764" r="186" fill="url(#paint1_radial)"/><path stroke="url(#paint2_linear)" stroke-linecap="round" stroke-width="6" d="M90 722C154 650 200 548 250 482C300 416 340 350 430 240"/><path stroke="#fff" stroke-linecap="round" stroke-opacity=".22" stroke-width="2" d="M120 750C182 690 226 604 274 544C332 470 370 400 438 316"/><path stroke="#fff" stroke-linecap="round" stroke-opacity=".28" stroke-width="2" d="M90 214H226"/><path stroke="#fff" stroke-linecap="round" stroke-opacity=".14" stroke-width="2" d="M90 790H430"/><rect width="392" height="736" x="64" y="82" stroke="#fff" stroke-opacity=".08" stroke-width="2" rx="26"/><defs><radialGradient id="paint0_radial" cx="0" cy="0" r="1" gradientTransform="translate(410 132) rotate(90) scale(182)" gradientUnits="userSpaceOnUse"><stop stop-color="#6366F1"/><stop offset="1" stop-color="#6366F1" stop-opacity="0"/></radialGradient><radialGradient id="paint1_radial" cx="0" cy="0" r="1" gradientTransform="translate(98 764) rotate(90) scale(186)" gradientUnits="userSpaceOnUse"><stop stop-color="#10B981"/><stop offset="1" stop-color="#10B981" stop-opacity="0"/></radialGradient><linearGradient id="paint2_linear" x1="90" x2="430" y1="722" y2="240" gradientUnits="userSpaceOnUse"><stop stop-color="#10B981"/><stop offset=".5" stop-color="#fff"/><stop offset="1" stop-color="#6366F1"/></linearGradient></defs></svg>